# xmcd
# Copyright (C) 1995-1998 Ti Kan
#
# Track frame offsets:
#       150
#       15582
#       27466
#
# Disc length: 571 seconds
#
# Revision: 0
# Processed by: cddbd v1.5.2PL0 Copyright (c) Steve Scherf et al.
# Submitted via: CD-Import v1.0
#
DISCID=1a023903
DTITLE=Andrew - 
DYEAR=1900
DGENRE=
TTITLE0=Elvis Pressekonferenz Deutschland
TTITLE1=Kinski Wird Wütend
TTITLE2=Trapatoni Wird Wütend
EXTD=
EXTT0=
EXTT1=
EXTT2=
PLAYORDER=
